# xmcd CD database file
#
# Track frame offsets:
#	150
#	18237
#	36322
#	53802
#	59600
#	79397
#	100922
#	120267
#
# Disc length: 1647 seconds
#
# Revision: 0
# Processed by: cddbd v1.5.2PL0 Copyright (c) Steve Scherf et al.
# Submitted via: CDex 1.70beta3
#
DISCID=63066d08
DTITLE=Da-iCE - i
DYEAR=2013
DGENRE=avex
TTITLE0=My Generation
TTITLE1=Summer Step
TTITLE2=君のために歌ったラブレター
TTITLE3=＆i -interlude-
TTITLE4=M.I.B.
TTITLE5=Labyrinth
TTITLE6=陽炎 ～KAGEROU～
TTITLE7=Re:Generation -outro-
EXTD=YEAR: 2013
EXTT0=
EXTT1=
EXTT2=
EXTT3=
EXTT4=
EXTT5=
EXTT6=
EXTT7=
PLAYORDER=
